<svg width="450" height="576" viewBox="0 0 450 576" fill="none" xmlns="http://www.w3.org/2000/svg">
<g filter="url(#filter0_d_14_397)">
<path d="M133.549 232.687C71.3751 295.689 -6.74067 428.242 7.75591 455.131C23.9955 485.059 110.55 396.719 110.231 391.554C109.976 387.664 140.436 307.146 163.52 248.586C186.604 190.026 148.917 217.106 133.549 232.687Z" fill="#E29F90"/>
<path d="M110.805 391.66C113.462 383.052 154.89 276.878 166.729 243.293C178.569 209.709 167.601 199.336 133.761 230.093C99.9219 260.851 25.781 363.56 8.86126 418.103C-7.44208 470.626 19.5955 470.626 55.2843 446.416C84.49 426.584 110.805 391.66 110.805 391.66Z" fill="#455A64"/>
<path d="M143.412 239.595C144.45 241.746 145.166 244.038 145.537 246.397C144 244.571 142.726 242.539 141.754 240.36C140.735 238.202 140.019 235.913 139.628 233.558C141.165 235.384 142.439 237.416 143.412 239.595V239.595ZM33.3482 373.508C33.7227 375.866 34.4387 378.157 35.4738 380.309C36.4463 382.489 37.7199 384.521 39.2573 386.346C38.8861 383.987 38.1699 381.695 37.1317 379.544C36.1574 377.372 34.8839 375.348 33.3482 373.529V373.508ZM69.951 317.753C70.3483 320.106 71.0634 322.394 72.0766 324.555C73.0433 326.731 74.3175 328.757 75.8601 330.571C75.4827 328.213 74.7667 325.922 73.7345 323.769C72.7627 321.595 71.4889 319.57 69.951 317.753V317.753ZM105.767 313.502C108.124 313.12 110.414 312.404 112.569 311.376C114.753 310.421 116.786 309.153 118.606 307.614C116.247 307.985 113.955 308.701 111.804 309.74C109.632 310.72 107.613 312.008 105.81 313.566L105.767 313.502ZM71.4601 369.894C73.8118 369.52 76.0962 368.804 78.2408 367.768C80.4233 366.802 82.4562 365.528 84.2775 363.985C81.919 364.359 79.6277 365.076 77.4756 366.111C75.3108 367.1 73.2993 368.396 71.5027 369.958L71.4601 369.894ZM99.348 273.286C101.702 272.894 103.992 272.179 106.15 271.16C108.329 270.187 110.361 268.914 112.187 267.376C109.827 267.748 107.536 268.464 105.385 269.502C103.217 270.498 101.199 271.793 99.3905 273.349L99.348 273.286ZM128.256 337.883C125.495 341.794 123.802 346.359 123.346 351.125C126.102 347.211 127.794 342.648 128.256 337.883V337.883ZM56.4534 405.094C53.692 409.006 51.9995 413.57 51.5433 418.336C54.3047 414.425 55.9972 409.86 56.4534 405.094V405.094ZM96.2659 399.142C98.0495 400.467 100.019 401.519 102.111 402.267L103.365 400.779H103.217C101.001 399.925 98.6747 399.396 96.3084 399.206L96.2659 399.142ZM25.1008 442.419C21.1893 439.658 16.6247 437.966 11.8584 437.509C13.8077 438.925 15.9568 440.043 18.2352 440.825C20.4375 441.677 22.7487 442.213 25.1008 442.419ZM138.884 283.68C140.838 285.083 142.986 286.193 145.261 286.974C146.809 287.567 148.41 288.009 150.044 288.292C150.044 287.995 150.256 287.676 150.384 287.357C148.943 286.524 147.436 285.813 145.877 285.231C143.633 284.392 141.276 283.89 138.884 283.744V283.68Z" fill="#37474F"/>
<path d="M118.245 469.67H354.59C354.59 469.67 317.031 284.296 226.374 203.97C215.172 194.043 189.898 196.296 173.425 204.501C167.537 207.413 146.388 236.98 140.372 264.932C134.357 292.884 117.564 468.819 118.245 469.67Z" fill="#455A64"/>
<path d="M138.31 276.623C136.461 282.872 134.931 289.376 133.676 295.753C133.676 295.498 133.676 295.243 133.676 294.988C133.676 291.332 133.549 287.612 133.166 283.977C133.153 283.94 133.129 283.907 133.096 283.884C133.064 283.861 133.025 283.849 132.986 283.849C132.946 283.849 132.907 283.861 132.875 283.884C132.842 283.907 132.818 283.94 132.805 283.977C132.345 287.65 132.245 291.359 132.507 295.052C132.507 296.795 132.72 298.559 132.869 300.302C132.359 303.214 131.912 306.126 131.551 309.038C130.849 314.543 129 335.077 128.851 339.158C128.851 340.029 129.808 340.157 130.042 339.285C131.147 335.141 134.101 313.97 135.037 308.528C136.854 297.975 138.103 287.331 138.778 276.644C138.757 276.368 138.374 276.368 138.31 276.623Z" fill="#263238"/>
<path d="M215.342 258.47C216.38 260.621 217.096 262.913 217.467 265.272C214.433 261.603 212.404 257.208 211.58 252.519C213.103 254.319 214.369 256.322 215.342 258.47V258.47ZM239.808 340.54C240.179 342.899 240.895 345.191 241.933 347.341C242.906 349.521 244.179 351.553 245.717 353.378C245.345 351.019 244.629 348.727 243.591 346.576C242.619 344.397 241.345 342.365 239.808 340.54V340.54ZM316.52 374.23C316.892 376.59 317.608 378.881 318.646 381.032C319.618 383.247 320.907 385.309 322.472 387.154C322.098 384.795 321.381 382.504 320.346 380.352C319.368 378.14 318.08 376.079 316.52 374.23V374.23ZM260.086 434.576C260.911 439.266 262.939 443.66 265.974 447.33C265.579 444.976 264.864 442.687 263.848 440.528C262.895 438.383 261.65 436.38 260.15 434.576H260.086ZM161.543 317.987C161.92 320.345 162.636 322.636 163.669 324.789C164.64 326.962 165.914 328.987 167.452 330.804C166.636 326.112 164.606 321.715 161.564 318.051L161.543 317.987ZM130.488 382.031C130.873 384.381 131.589 386.663 132.614 388.812C133.565 390.998 134.832 393.032 136.376 394.849C135.998 392.491 135.283 390.2 134.25 388.047C133.318 385.872 132.072 383.845 130.552 382.031H130.488ZM205.628 428.178C206.444 432.87 208.474 437.267 211.516 440.932C211.129 438.576 210.414 436.286 209.39 434.13C208.439 431.984 207.195 429.981 205.692 428.178H205.628ZM277.643 303.32C278.014 305.68 278.731 307.971 279.769 310.122C280.724 312.311 281.999 314.345 283.552 316.159C282.703 311.477 280.677 307.089 277.664 303.405L277.643 303.32ZM186.03 292.076C188.383 291.679 190.671 290.964 192.832 289.95C195.008 288.984 197.034 287.709 198.847 286.167C196.496 286.541 194.211 287.257 192.067 288.292C189.906 289.264 187.895 290.538 186.094 292.076H186.03ZM171.151 368.13C173.498 367.736 175.779 367.02 177.931 366.004C180.114 365.038 182.147 363.764 183.968 362.221C181.61 362.595 179.318 363.311 177.166 364.346C175.005 365.317 172.994 366.591 171.193 368.13H171.151ZM310.144 448.796C312.501 448.415 314.791 447.699 316.946 446.671C319.125 445.698 321.157 444.425 322.982 442.887C320.623 443.258 318.331 443.975 316.18 445.013C314.001 445.985 311.969 447.259 310.144 448.796V448.796ZM170.3 462.953L174.084 462.719L175.529 462.081C177.707 461.105 179.738 459.832 181.566 458.298C179.201 458.673 176.903 459.389 174.743 460.423C173.197 461.1 171.717 461.918 170.322 462.868L170.3 462.953ZM257.004 387.154C261.693 386.329 266.088 384.3 269.757 381.266C265.068 382.091 260.673 384.12 257.004 387.154V387.154ZM186.072 224.758C188.43 224.381 190.721 223.665 192.874 222.633C195.054 221.674 197.081 220.399 198.89 218.849C196.543 219.243 194.261 219.959 192.109 220.975C189.935 221.936 187.91 223.203 186.094 224.737L186.072 224.758ZM178.356 249.309C175.604 253.217 173.912 257.773 173.446 262.53C174.867 260.584 175.985 258.434 176.762 256.153C177.621 253.961 178.158 251.655 178.356 249.309ZM140.818 425.223C138.057 429.135 136.364 433.7 135.908 438.466C137.33 436.517 138.455 434.368 139.245 432.089C140.107 429.889 140.65 427.577 140.861 425.223H140.818ZM242.209 293.436C239.448 297.348 237.756 301.913 237.299 306.679C238.723 304.735 239.841 302.584 240.615 300.302C241.466 298.163 242.017 295.917 242.252 293.628L242.209 293.436ZM213.025 370.872C210.264 374.783 208.571 379.348 208.115 384.114C210.876 380.203 212.569 375.638 213.025 370.872V370.872ZM346.279 469.67H346.895C346.895 469.351 346.895 469.011 346.895 468.692L346.279 469.67ZM280.003 469.67H281.916L282.171 469.011C283.023 466.788 283.553 464.454 283.744 462.081C282.336 464.036 281.219 466.184 280.428 468.458C280.236 468.798 280.088 469.245 279.96 469.67H280.003ZM295.604 406.88C292.852 410.788 291.16 415.343 290.694 420.101C293.447 416.193 295.139 411.637 295.604 406.88V406.88ZM238.362 224.652C235.609 228.56 233.918 233.116 233.452 237.873C234.865 235.922 235.982 233.774 236.768 231.496C237.603 229.299 238.125 226.995 238.32 224.652H238.362ZM180.461 411.705C178.505 410.293 176.358 409.17 174.084 408.367C171.856 407.507 169.514 406.977 167.133 406.794C171.048 409.551 175.611 411.243 180.376 411.705H180.461ZM242.337 468.607C238.425 465.846 233.861 464.153 229.095 463.697C231.04 465.118 233.19 466.236 235.471 467.013C237.656 467.887 239.953 468.453 242.294 468.692L242.337 468.607ZM337.989 415.106C338.989 415.871 340.065 416.534 341.199 417.082L340.71 415.467C339.74 415.3 338.76 415.207 337.776 415.191L337.989 415.106ZM293.564 351.593C289.659 348.877 285.12 347.215 280.385 346.768C282.336 348.181 284.485 349.298 286.762 350.084C288.948 350.9 291.238 351.408 293.564 351.593ZM243.974 414.234C240.059 411.478 235.496 409.786 230.731 409.324C234.643 412.085 239.207 413.778 243.974 414.234V414.234ZM214.492 324.385C210.583 321.632 206.028 319.94 201.27 319.475C203.221 320.894 205.369 322.019 207.647 322.812C209.844 323.655 212.148 324.184 214.492 324.385V324.385ZM152.148 288.632C150.188 287.234 148.042 286.117 145.771 285.317C143.549 284.459 141.215 283.923 138.842 283.722C140.788 285.143 142.938 286.261 145.218 287.038C147.441 287.896 149.774 288.433 152.148 288.632V288.632ZM263.657 267.738C261.703 266.324 259.555 265.2 257.28 264.401C255.06 263.538 252.725 263.008 250.35 262.828C254.262 265.589 258.827 267.282 263.593 267.738H263.657Z" fill="#37474F"/>
<path d="M7.75594 455.173C21.7424 475.175 59.8331 479.001 154.847 497.685C167.984 500.257 211.133 412.385 197.232 408.899C179.717 404.541 110.847 391.363 105.682 391.023C62.1713 388.132 -1.74548 441.548 7.75594 455.173Z" fill="#E29F90"/>
<path d="M178.229 404.435C178.229 404.435 218.467 410.535 238.638 420.271C265.612 433.322 283.552 455.683 290.503 465.525C305 486.037 325.894 545.681 309.761 554.694C295.158 562.856 276.899 500.81 276.899 500.81C276.899 500.81 305.956 560.985 286.571 567.575C267.185 574.164 250.074 500.937 250.074 500.937C250.074 500.937 278.557 563.451 257.493 567.086C241.572 569.828 222.335 504.381 222.335 504.381C222.335 504.381 246.439 558.286 230.2 561.772C212.239 565.704 190.685 506.4 190.685 506.4C147.875 508.419 126.662 491.861 112.973 478.3C109.657 475.005 178.229 404.435 178.229 404.435Z" fill="#E29F90"/>
<path d="M268.184 479.341C271.84 486.292 275.603 493.306 278.642 500.597C281.682 507.888 284.466 515.2 286.826 522.703C290.087 532.44 292.226 542.517 293.203 552.738C290.142 534.713 279.662 508.611 276.623 501.362C273.583 494.114 270.926 486.738 267.887 479.49C267.823 479.277 268.078 479.192 268.184 479.341Z" fill="#263238"/>
<path d="M241.806 489.842C246.057 498.918 250.712 507.76 254.559 517.028C258.407 526.296 261.34 535.351 264.571 544.81C264.826 545.532 264.337 545.426 264.061 544.703C260.447 535.372 256.387 527.04 252.667 517.751C248.948 508.462 245.589 499.045 241.529 489.927C241.508 489.799 241.742 489.714 241.806 489.842Z" fill="#263238"/>
<path d="M217.553 494.794C224.822 508.313 229.605 523.171 233.962 537.859C234.175 538.582 233.58 538.39 233.303 537.646C228.117 523.235 224.163 511.884 217.085 495.134C216.957 494.773 217.404 494.497 217.553 494.794Z" fill="#263238"/>
<path d="M186.625 404.435L103.387 497.132C103.387 497.132 19.2129 477.811 6.79943 456.236C-1.36287 442.016 62.0649 384.454 109.848 391.171L186.625 404.435Z" fill="#455A64"/>
<path d="M116.48 468.309C117.515 470.461 118.231 472.753 118.606 475.111C117.062 473.295 115.794 471.261 114.844 469.075C113.815 466.92 113.1 464.629 112.718 462.273C114.248 464.099 115.514 466.131 116.48 468.309V468.309ZM51.0969 451.049C51.4883 453.404 52.2036 455.693 53.2225 457.851C54.189 460.034 55.4631 462.067 57.0061 463.888C56.6348 461.529 55.9186 459.237 54.8805 457.086C53.9079 454.907 52.6343 452.875 51.0969 451.049V451.049ZM90.0804 441.399C94.7698 440.574 99.1646 438.546 102.834 435.511C100.479 435.903 98.1904 436.618 96.032 437.637C93.8837 438.61 91.8808 439.876 90.0804 441.399V441.399ZM56.4959 405.264C53.7345 409.176 52.0419 413.74 51.5858 418.507C54.3472 414.595 56.0397 410.03 56.4959 405.264V405.264ZM140.861 425.33C138.099 429.241 136.407 433.806 135.951 438.572C137.373 436.624 138.497 434.474 139.288 432.195C140.144 429.959 140.674 427.611 140.861 425.223V425.33ZM180.482 411.79C178.527 410.378 176.379 409.255 174.105 408.452C171.877 407.592 169.536 407.062 167.155 406.879C171.069 409.636 175.632 411.328 180.397 411.79H180.482ZM109.53 404.159C107.579 402.746 105.43 401.628 103.153 400.843C100.936 399.966 98.6002 399.429 96.2233 399.249C100.131 402.001 104.687 403.693 109.445 404.159H109.53ZM83.321 485.654C81.365 484.249 79.2175 483.133 76.9442 482.338C74.7173 481.471 72.3756 480.934 69.9934 480.744C73.9077 483.5 78.471 485.192 83.2359 485.654H83.321ZM13.1762 438.572C14.7357 439.524 16.388 440.315 18.1076 440.932C20.3351 441.8 22.676 442.344 25.0583 442.547C23.0943 441.15 20.949 440.027 18.6815 439.21C17.0579 438.611 15.387 438.149 13.6864 437.828L13.1762 438.572Z" fill="#37474F"/>
<path d="M52.7762 406.284C60.4921 400.694 82.2157 387.664 109.912 391.129C110.167 391.129 110.167 391.575 109.912 391.554C89.0388 390.959 60.8534 401.884 52.9675 406.646C52.7549 406.709 52.5849 406.391 52.7762 406.284Z" fill="#263238"/>
<path d="M80.579 481.616C89.1877 470.988 98.349 460.721 107.553 450.539C116.757 440.358 125.939 430.134 135.398 420.164C140.733 414.532 146.026 408.878 151.595 403.436C151.723 403.287 151.999 403.436 151.872 403.649C143.369 414.277 134.144 424.586 125.025 434.81C115.906 445.034 106.639 455.237 97.3925 465.312C92.121 471.009 86.7645 476.599 81.1954 482.062C80.8766 482.317 80.3664 481.934 80.579 481.616Z" fill="#263238"/>
<path d="M186.859 403.245C181.744 401.711 176.532 400.525 171.257 399.695C166.007 398.696 160.735 397.803 155.443 396.953C144.963 395.274 122.921 390.576 103.535 390.576C103.323 390.576 104.428 391.618 104.641 391.596C113.866 391.108 179.972 404.35 185.413 404.648C185.186 404.999 184.987 405.369 184.818 405.753C184.712 406.008 184.988 406.369 185.265 406.157C185.945 405.71 186.434 405.137 187.071 404.626C187.196 404.546 187.294 404.432 187.355 404.297C187.416 404.162 187.436 404.013 187.414 403.867C187.391 403.72 187.327 403.584 187.228 403.474C187.13 403.363 187.002 403.284 186.859 403.245V403.245Z" fill="#263238"/>
<path d="M431.069 131.189C431.558 119.839 429.262 67.6127 425.372 53.2011C421.483 38.7896 407.283 -1.78809 395.954 0.0611828C384.625 1.91045 387.834 14.1326 387.834 14.1326C387.834 14.1326 379.141 -2.06443 367.896 0.847644C356.652 3.75971 362.285 22.6138 362.285 22.6138C362.285 22.6138 352.124 6.62929 341.135 10.3278C330.146 14.0264 339.009 32.0302 339.009 32.0302C339.009 32.0302 330.507 17.0022 322.621 23.8679C313.268 32.1152 332.271 58.0475 335.374 74.2658C336.076 77.9431 344.345 149.895 344.345 149.895L431.069 131.189Z" fill="#E29F90"/>
<path d="M338.244 30.4998C352.167 49.6302 354.951 60.3857 356.503 83.6398C356.503 83.7356 356.541 83.8275 356.609 83.8953C356.676 83.963 356.768 84.0011 356.864 84.0011C356.96 84.0011 357.052 83.963 357.12 83.8953C357.188 83.8275 357.226 83.7356 357.226 83.6398C357.778 60.7683 356.227 46.7393 339.115 29.7771C338.287 28.9481 337.564 29.5858 338.244 30.4998Z" fill="#263238"/>
<path d="M361.158 21.1259C373.912 42.233 377.015 53.9026 380.416 78.1131C380.416 78.4532 381.054 78.4107 381.032 78.1131C379.672 54.0939 377.801 40.15 362.327 20.722C361.626 19.7655 360.563 20.1693 361.158 21.1259Z" fill="#263238"/>
<path d="M387.983 15.3868C398.824 36.6428 402.862 49.3964 403.096 73.2881C403.096 73.4065 403.143 73.52 403.227 73.6037C403.311 73.6874 403.424 73.7345 403.542 73.7345C403.661 73.7345 403.774 73.6874 403.858 73.6037C403.942 73.52 403.989 73.4065 403.989 73.2881C406.114 48.8437 401.204 33.0505 388.663 15.0892C387.813 13.8989 387.303 14.0477 387.983 15.3868Z" fill="#263238"/>
<path d="M345.025 164.774C345.025 164.774 323.45 144.474 315.946 133.464C308.443 122.453 295.541 71.0987 306.466 67.5702C320.58 63.1702 333.865 91.3556 338.563 106.001C338.563 106.001 371.191 95.7769 385.113 113.93C399.036 132.082 345.025 164.774 345.025 164.774Z" fill="#E29F90"/>
<path d="M310.739 67.7402C326.511 73.0117 331.442 92.631 337.075 106.511C337.149 106.714 337.27 106.895 337.429 107.042C337.587 107.188 337.778 107.295 337.985 107.353C338.193 107.411 338.411 107.419 338.623 107.376C338.834 107.333 339.032 107.241 339.201 107.106C353.166 103.727 373.848 103.046 385.177 113.101C385.208 113.134 385.245 113.161 385.286 113.18C385.327 113.199 385.372 113.21 385.417 113.212C385.463 113.214 385.508 113.207 385.551 113.192C385.593 113.176 385.633 113.152 385.666 113.122C385.7 113.091 385.727 113.054 385.746 113.013C385.765 112.972 385.776 112.927 385.778 112.882C385.78 112.836 385.773 112.791 385.757 112.748C385.742 112.706 385.718 112.666 385.687 112.633C375.059 100.177 354.611 99.1991 339.541 103.875C334.014 89.5701 328.19 70.0996 310.739 67.5914C310.696 67.5702 310.654 67.719 310.739 67.7402Z" fill="#263238"/>
<path d="M213.323 231.688C227.522 256.238 309.548 331.952 381.032 345.067C390.746 346.853 427.689 339.052 435.405 314.543C449.158 270.905 438.168 180.801 431.154 126.577C429.772 115.949 331.442 137.757 333.993 153.933C336.82 171.831 347.342 237.639 345.726 238.383C339.838 241.104 276.984 213.981 235.726 205.075C206.478 198.783 202.397 212.855 213.323 231.688Z" fill="#E29F90"/>
<path d="M445.013 153.338L332.951 177.591C332.951 177.591 343.154 234.855 341.135 234.515C339.116 234.175 260.532 205.522 230.221 202.503C199.91 199.485 199.889 212.812 215.342 237.831C230.795 262.849 331.4 346.768 380.969 346.768C406.221 346.768 429.73 330.592 434.3 322.876C448.541 298.772 445.013 153.338 445.013 153.338Z" fill="#455A64"/>
<path d="M445.013 153.338L332.951 177.591C332.951 177.591 343.154 234.855 341.135 234.515C339.116 234.175 260.532 205.522 230.221 202.503C199.91 199.485 199.889 212.812 215.342 237.831C230.795 262.849 331.4 346.768 380.969 346.768C406.221 346.768 429.73 330.592 434.3 322.876C448.541 298.772 445.013 153.338 445.013 153.338Z" fill="#455A64"/>
<path d="M280.64 227.139C281.454 231.832 283.484 236.229 286.528 239.893C286.147 237.536 285.431 235.245 284.403 233.091C283.43 230.942 282.163 228.939 280.64 227.139V227.139ZM369.703 327.042C370.508 331.734 372.531 336.131 375.57 339.796C375.198 337.436 374.482 335.145 373.444 332.994C372.446 330.887 371.173 328.922 369.66 327.148L369.703 327.042ZM435.596 258.47C435.994 260.823 436.709 263.112 437.722 265.272C438.681 267.452 439.956 269.479 441.506 271.288C441.131 268.936 440.415 266.652 439.38 264.507C438.419 262.373 437.175 260.379 435.681 258.577L435.596 258.47ZM338.031 258.747C338.856 263.436 340.885 267.831 343.919 271.5C343.095 266.811 341.066 262.416 338.031 258.747ZM387.133 286.996C387.514 289.353 388.23 291.643 389.258 293.798C390.193 296.049 391.47 298.142 393.042 300.004C392.658 297.648 391.942 295.358 390.916 293.202C389.973 291.007 388.728 288.954 387.218 287.102L387.133 286.996ZM382.881 218.126C383.698 222.818 385.728 227.215 388.769 230.88C388.385 228.531 387.669 226.248 386.644 224.099C385.675 221.975 384.408 220 382.881 218.233V218.126ZM432.748 166.921C433.133 169.284 433.848 171.581 434.874 173.744C435.83 175.926 437.105 177.953 438.657 179.759C438.266 177.405 437.551 175.116 436.532 172.957C435.536 170.823 434.264 168.829 432.748 167.027V166.921ZM233.431 237.767C234.827 235.806 235.943 233.66 236.747 231.39C237.607 229.17 238.137 226.835 238.32 224.461C236.911 226.414 235.794 228.562 235.004 230.837C234.133 233.092 233.603 235.463 233.431 237.873V237.767ZM299.792 283.574C301.208 281.624 302.325 279.475 303.108 277.197C303.965 274.974 304.502 272.641 304.702 270.267C303.297 272.223 302.181 274.371 301.386 276.644C300.511 278.898 299.974 281.269 299.792 283.68V283.574ZM349.616 231.985C352.377 228.074 354.07 223.509 354.526 218.743C353.125 220.701 352.009 222.848 351.21 225.12C350.361 227.322 349.824 229.633 349.616 231.985ZM355.993 306.679C357.389 304.718 358.505 302.571 359.309 300.302C360.168 298.073 360.705 295.732 360.903 293.351C358.141 297.263 356.449 301.828 355.993 306.594V306.679ZM419.909 298.602C421.319 296.648 422.436 294.5 423.225 292.225C424.08 290.001 424.617 287.669 424.82 285.295C422.067 289.203 420.375 293.759 419.909 298.516V298.602ZM399.759 193.023C401.151 191.059 402.267 188.914 403.075 186.646C403.932 184.416 404.469 182.076 404.669 179.696C401.913 183.61 400.221 188.173 399.759 192.938V193.023ZM407.305 252.944C408.708 250.987 409.824 248.839 410.621 246.567C411.483 244.34 412.013 241.998 412.194 239.616C410.799 241.578 409.683 243.724 408.878 245.993C408.034 248.251 407.532 250.622 407.39 253.029L407.305 252.944ZM250.329 262.721C254.228 265.506 258.8 267.201 263.572 267.632C261.612 266.232 259.466 265.116 257.195 264.316C255.015 263.501 252.733 262.993 250.414 262.806L250.329 262.721ZM368.874 260.001C370.827 261.41 372.975 262.527 375.251 263.317C377.474 264.171 379.807 264.708 382.18 264.911C380.224 263.506 378.077 262.389 375.803 261.595C373.606 260.765 371.301 260.257 368.959 260.086L368.874 260.001ZM357.693 189.58C359.636 191.005 361.787 192.123 364.07 192.896C366.29 193.76 368.625 194.297 370.999 194.49C369.038 193.093 366.892 191.977 364.623 191.174C362.423 190.353 360.119 189.845 357.778 189.665L357.693 189.58ZM421.291 211.686C423.242 213.099 425.391 214.216 427.668 215.002C429.897 215.861 432.238 216.398 434.619 216.596C430.707 213.835 426.142 212.142 421.376 211.686H421.291ZM315.5 307.189C317.449 308.605 319.599 309.722 321.877 310.505C324.097 311.37 326.431 311.907 328.806 312.099C326.845 310.703 324.699 309.587 322.43 308.783C320.23 307.963 317.926 307.455 315.585 307.274L315.5 307.189ZM400.673 325.809C404.572 328.594 409.143 330.289 413.915 330.719C410.004 327.958 405.439 326.265 400.673 325.809ZM308.889 231.007C310.84 232.427 312.988 233.551 315.266 234.345C317.497 235.195 319.837 235.725 322.217 235.918C320.256 234.521 318.11 233.405 315.84 232.602C313.634 231.779 311.323 231.271 308.975 231.093L308.889 231.007Z" fill="#37474F"/>
<path d="M340.285 235.067C341.135 243.619 342.62 252.095 344.727 260.426C346.619 268.928 349.255 277.09 351.763 285.38C351.763 285.572 352.103 285.38 352.06 285.274C349.935 276.942 348.341 268.46 346.513 260.043C344.684 251.626 343.388 243.166 341.241 234.876C341.114 234.323 340.242 234.536 340.285 235.067Z" fill="#263238"/>
<path d="M339.541 198.783C352.528 195.553 365.664 193.023 378.8 190.515C391.937 188.007 405.115 185.498 418.337 183.33C425.798 182.097 433.216 180.843 440.783 179.866C440.974 179.866 441.059 180.163 440.783 180.206C427.817 183.437 414.681 186.03 401.587 188.708C388.493 191.386 375.272 193.746 362.072 196.084C354.611 197.402 347.193 198.571 339.626 199.549C339.349 199.485 339.179 198.868 339.541 198.783Z" fill="#263238"/>
<path d="M302.555 313.247C300.43 311.419 298.304 309.867 296.051 308.145L289.674 303.235C285.423 299.919 281.023 296.625 276.708 293.287C268.078 286.613 259.703 279.726 251.052 272.945C246.177 269.077 241.352 265.152 236.577 261.17C236.385 261.021 236.109 261.297 236.3 261.467C242.188 266.994 248.119 272.478 254.24 277.749L251.923 276.623C249.585 275.454 247.29 274.2 244.994 272.924C244.975 272.913 244.953 272.906 244.931 272.903C244.908 272.9 244.886 272.902 244.864 272.908C244.842 272.914 244.822 272.924 244.804 272.938C244.786 272.951 244.771 272.968 244.76 272.988C244.749 273.008 244.742 273.029 244.739 273.051C244.736 273.074 244.738 273.096 244.744 273.118C244.75 273.14 244.76 273.16 244.773 273.178C244.787 273.196 244.804 273.211 244.824 273.222C246.96 274.784 249.197 276.204 251.52 277.473C252.646 278.089 253.815 278.663 254.984 279.195L256.685 279.939C258.066 281.108 259.448 282.277 260.936 283.425C269.438 290.312 278.082 296.951 286.868 303.342C289.291 305.127 291.757 306.849 294.287 308.507C296.816 310.165 299.473 312.163 302.258 313.693C302.513 313.736 302.768 313.417 302.555 313.247Z" fill="#263238"/>
<path d="M174.509 243.74C188.814 246.546 212.302 223.929 221.272 205.989C221.889 204.756 219.529 192.152 217.425 176.698C216.171 167.303 215.002 156.824 214.619 147.195C214.619 145.197 154.72 164.2 154.72 164.2C154.72 164.2 161.458 184.181 162.011 200.994C162.058 202.324 161.972 203.656 161.756 204.969C161.756 205.139 161.756 205.373 161.756 205.628C160.714 213.237 160.693 241.019 174.509 243.74Z" fill="#E29F90"/>
<path d="M167.856 205.734C165.791 205.917 163.714 205.917 161.649 205.734C161.649 205.479 161.649 205.288 161.649 205.075C161.867 203.769 161.952 202.445 161.904 201.122C161.352 184.308 154.635 164.327 154.635 164.327C154.635 164.327 203.183 148.874 212.855 147.323C211.473 158.376 203.481 203.566 167.856 205.734Z" fill="#263238"/>
<path d="M229.371 88.0184C234.026 109.976 217.361 170.747 200.952 183.181C177.187 201.228 140.925 199.995 126.279 172.022C112.08 144.899 135.186 66.1035 153.253 55.1142C179.951 38.8108 222.548 55.5606 229.371 88.0184Z" fill="#E29F90"/>
<path d="M172.915 123.027C172.915 122.878 173.17 123.325 173.128 123.473C171.895 127.555 171.172 132.401 174.509 134.76C174.54 134.774 174.564 134.8 174.576 134.832C174.588 134.864 174.587 134.899 174.573 134.93C174.559 134.961 174.533 134.986 174.501 134.998C174.469 135.009 174.434 135.008 174.403 134.994C170.067 133.124 171.087 126.683 172.915 123.027Z" fill="#263238"/>
<path d="M177.719 119.732C184.436 121.008 181.396 134.378 175.168 133.187C168.94 131.997 172.086 118.67 177.719 119.732Z" fill="#263238"/>
<path d="M149.321 117.203C149.321 117.033 148.959 117.33 148.917 117.501C148.109 121.752 146.494 126.3 142.54 126.832C142.413 126.832 142.37 127.044 142.54 127.066C147.131 127.491 149.236 121.327 149.321 117.203Z" fill="#263238"/>
<path d="M146.621 112.08C140.074 109.955 136.503 123.282 142.583 125.153C148.662 127.023 152.105 113.781 146.621 112.08Z" fill="#263238"/>
<path d="M185.073 113.164C183.317 112.543 181.593 111.834 179.908 111.039C177.976 110.512 176.272 109.361 175.062 107.765C174.783 107.191 174.7 106.54 174.827 105.914C174.953 105.288 175.282 104.721 175.763 104.301C176.842 103.613 178.085 103.226 179.363 103.182C180.642 103.137 181.909 103.435 183.033 104.045C185.504 104.92 187.558 106.686 188.793 108.998C189.024 109.537 189.097 110.131 189.002 110.709C188.908 111.288 188.65 111.828 188.259 112.265C187.869 112.703 187.362 113.02 186.797 113.179C186.233 113.338 185.635 113.333 185.073 113.164V113.164Z" fill="#263238"/>
<path d="M142.986 104.173C144.859 104.223 146.732 104.166 148.598 104.003C150.583 104.221 152.585 103.781 154.295 102.749C154.77 102.319 155.09 101.744 155.205 101.114C155.32 100.484 155.224 99.8331 154.932 99.2629C154.179 98.2285 153.163 97.4135 151.99 96.9017C150.817 96.3899 149.529 96.1997 148.258 96.3508C145.634 96.2592 143.07 97.154 141.073 98.859C140.638 99.2709 140.332 99.8008 140.194 100.384C140.055 100.967 140.089 101.578 140.292 102.142C140.495 102.706 140.858 103.198 141.337 103.559C141.815 103.92 142.388 104.133 142.986 104.173V104.173Z" fill="#263238"/>
<path d="M167.984 160.884C166.772 161.628 165.497 162.733 163.966 162.521C162.413 162.126 160.963 161.401 159.715 160.395C159.689 160.382 159.661 160.376 159.632 160.379C159.603 160.382 159.576 160.393 159.553 160.411C159.531 160.429 159.514 160.453 159.505 160.48C159.496 160.508 159.495 160.537 159.502 160.565C159.909 161.513 160.563 162.334 161.398 162.94C162.232 163.546 163.215 163.916 164.242 164.009C165.136 163.977 166.001 163.682 166.728 163.16C167.454 162.638 168.009 161.913 168.324 161.075C168.472 160.948 168.175 160.778 167.984 160.884Z" fill="#263238"/>
<path d="M166.453 147.514C165.033 148.912 163.338 150 161.476 150.71C159.614 151.42 157.624 151.736 155.634 151.638C153.892 151.577 152.167 151.269 150.511 150.724C150.187 150.649 149.872 150.535 149.576 150.384C149.273 150.285 148.975 150.172 148.683 150.043C148.472 149.949 148.297 149.787 148.186 149.584C148.074 149.38 148.032 149.146 148.067 148.917V148.917C148.086 148.776 148.129 148.64 148.194 148.513V148.513V148.152C148.853 144.942 150.32 140.181 150.32 140.181C149.023 140.499 142.476 141.817 142.944 140.181C146.919 126.598 151.319 111.485 158.121 98.7952C158.157 98.6994 158.231 98.622 158.324 98.5802C158.418 98.5383 158.524 98.5354 158.62 98.5721C158.716 98.6087 158.793 98.6819 158.835 98.7756C158.877 98.8693 158.88 98.9757 158.843 99.0716C155.57 112.272 149.98 124.834 146.472 138.055C148.803 137.55 151.193 137.378 153.572 137.545C153.997 137.779 150.681 146.728 150.511 148.173C150.499 148.222 150.499 148.273 150.511 148.322C155.698 150.235 160.098 149.533 166.113 147.11C166.517 146.961 166.793 147.238 166.453 147.514Z" fill="#263238"/>
<path d="M152.658 151.212C154.269 153.752 156.51 155.832 159.162 157.249C160.627 157.983 162.286 158.236 163.902 157.972C167.431 157.377 167.792 154.231 167.41 151.468C167.182 150.011 166.79 148.585 166.241 147.216C162.257 149.966 157.496 151.367 152.658 151.212V151.212Z" fill="#263238"/>
<path d="M159.226 157.249C160.691 157.983 162.349 158.236 163.966 157.972C167.495 157.377 167.856 154.231 167.473 151.468C163.669 151.51 159.8 153.699 159.226 157.249Z" fill="#FF9ABB"/>
<path d="M217.553 142.264C217.553 142.264 239.786 109.359 238.809 89.6551C238.383 80.7489 226.586 74.1808 226.586 74.1808C227.697 70.6127 227.788 66.8052 226.849 63.1882C225.91 59.5712 223.978 56.2887 221.272 53.7113C211.282 43.3171 185.775 44.2736 185.775 44.2736C185.775 44.2736 170.513 19.6804 146.749 27.949C122.985 36.2176 136.865 63.3615 136.865 63.3615C136.865 63.3615 127.703 75.0523 148.109 85.574C167.962 95.8194 209.964 88.8049 209.964 88.8049C207.318 103.004 206.809 117.52 208.455 131.87C208.861 134.274 209.927 136.519 211.533 138.354C213.139 140.189 215.223 141.543 217.553 142.264V142.264Z" fill="#263238"/>
<path d="M181.8 44.3799C187.1 42.5396 192.723 41.8159 198.316 42.2543C203.334 42.4317 208.287 43.4594 212.961 45.2939C221.187 48.7161 228.329 55.2629 229.265 64.4243C229.509 66.7025 229.29 69.0066 228.622 71.1982C227.953 73.3898 226.849 75.4238 225.375 77.1779C225.247 77.3054 225.035 77.1779 225.162 76.944C230.88 70.5672 228.563 59.9393 223.292 54.1789C217.319 47.5683 207.817 44.6987 199.166 43.891C193.402 43.5176 187.615 43.8387 181.927 44.8475C181.874 44.8448 181.822 44.8252 181.781 44.7915C181.739 44.7578 181.708 44.7117 181.694 44.6599C181.68 44.608 181.683 44.5531 181.702 44.5028C181.721 44.4525 181.755 44.4095 181.8 44.3799V44.3799Z" fill="#263238"/>
<path d="M129.595 38.3432C131.848 31.9664 137.651 28.0128 144.028 26.3336C151.365 24.493 159.107 25.1513 166.028 28.2041C172.973 31.3252 178.96 36.2412 183.373 42.4456C183.479 42.5944 183.245 42.7644 183.139 42.6369C174.892 31.8389 161.5 25.2708 147.812 27.4601C141.711 28.4379 135.483 31.2437 132.401 36.8978C131.083 39.5815 130.369 42.5217 130.31 45.5112C130.252 48.5007 130.849 51.4667 132.061 54.2002C135.221 60.6861 140.151 66.1464 146.281 69.9509C146.409 69.9509 146.281 70.2484 146.154 70.1634C140.329 66.9516 135.415 62.3149 131.87 56.6871C130.196 53.9721 129.126 50.9283 128.734 47.763C128.341 44.5976 128.635 41.3848 129.595 38.3432V38.3432Z" fill="#263238"/>
<path d="M143.05 86.4243C152.149 90.6585 162.05 92.891 172.086 92.9711C182.49 93.1903 192.888 92.2852 203.098 90.2716C209.05 89.145 214.981 87.8059 220.847 86.3392C220.887 86.3392 220.924 86.3549 220.952 86.3828C220.98 86.4107 220.996 86.4486 220.996 86.488C220.996 86.5275 220.98 86.5653 220.952 86.5932C220.924 86.6211 220.887 86.6368 220.847 86.6368C210.54 90.4626 199.861 93.1983 188.984 94.7991C178.832 96.1761 168.51 95.5697 158.588 93.0136C153.157 91.5439 147.93 89.4017 143.029 86.6368C142.816 86.5518 142.923 86.3605 143.05 86.4243Z" fill="#263238"/>
<path d="M208.115 138.841C208.115 138.841 224.184 120.413 232.708 126.364C241.232 132.316 227.628 160.055 216.596 162.882C215.204 163.339 213.734 163.51 212.274 163.385C210.815 163.26 209.395 162.842 208.101 162.155C206.807 161.468 205.665 160.527 204.743 159.388C203.821 158.249 203.139 156.936 202.737 155.527L208.115 138.841Z" fill="#E29F90"/>
<path d="M228.563 134.208C228.591 134.219 228.614 134.238 228.631 134.262C228.648 134.287 228.657 134.316 228.657 134.346C228.657 134.376 228.648 134.405 228.631 134.429C228.614 134.454 228.591 134.473 228.563 134.484C220.805 136.61 216.15 143.178 212.642 150.043C215.151 147.535 218.318 146.345 221.719 149.384C221.91 149.533 221.719 149.831 221.485 149.746C220.219 149.192 218.814 149.041 217.459 149.315C216.105 149.589 214.869 150.274 213.918 151.276C212.348 152.972 210.965 154.832 209.794 156.824C209.369 157.462 208.2 156.973 208.54 156.229C208.54 156.229 208.54 156.123 208.54 156.059C209.475 146.579 218.275 134.08 228.563 134.208Z" fill="#263238"/>
<path d="M157.1 217.382C157.1 217.255 157.313 217.382 157.313 217.382C157.313 229.222 157.972 256.621 178.293 253.943C186.476 252.859 193.703 247.821 199.676 242.953C205.713 237.953 211.194 232.316 216.022 226.14C221.575 219.488 226.552 212.378 230.901 204.884C231.071 204.565 231.56 204.884 231.411 205.181C227.901 213.066 223.493 220.519 218.275 227.394C213.284 234.354 207.362 240.598 200.675 245.95C194.298 250.988 186.561 256.026 177.868 256.791C174.215 257.24 170.517 256.463 167.354 254.581C164.191 252.7 161.744 249.821 160.395 246.397C156.633 237.469 156.123 226.799 157.1 217.382Z" fill="#263238"/>
</g>
<defs>
<filter id="filter0_d_14_397" x="6.10352e-05" y="0" width="449.4" height="575.994" filterUnits="userSpaceOnUse" color-interpolation-filters="sRGB">
<feFlood flood-opacity="0" result="BackgroundImageFix"/>
<feColorMatrix in="SourceAlpha" type="matrix" values="0 0 0 0 0 0 0 0 0 0 0 0 0 0 0 0 0 0 127 0" result="hardAlpha"/>
<feOffset dy="4"/>
<feGaussianBlur stdDeviation="2"/>
<feComposite in2="hardAlpha" operator="out"/>
<feColorMatrix type="matrix" values="0 0 0 0 0 0 0 0 0 0 0 0 0 0 0 0 0 0 0.25 0"/>
<feBlend mode="normal" in2="BackgroundImageFix" result="effect1_dropShadow_14_397"/>
<feBlend mode="normal" in="SourceGraphic" in2="effect1_dropShadow_14_397" result="shape"/>
</filter>
</defs>
</svg>
